<?xml version="1.0" encoding="utf-8"?>
<!-- Generator: Adobe Illustrator 22.1.0, SVG Export Plug-In . SVG Version: 6.00 Build 0)  -->
<svg version="1.1" id="Layer_1" xmlns="http://www.w3.org/2000/svg" xmlns:xlink="http://www.w3.org/1999/xlink" x="0px" y="0px"
	 viewBox="0 0 100 125" style="enable-background:new 0 0 100 125;" xml:space="preserve">
<title>amplifier</title>
<g>
	<path d="M64.1,66.2c-0.7,0-1.5-0.3-2.1-1c-7.9-7.9-28.4-7.1-28.6-7.1c-0.1,0-0.2,0-0.3,0c-3.8-0.6-6.6-3.9-6.6-7.7v-6
		c0-3.9,2.8-7.1,6.7-7.7c0.1,0,0.1,0,0.2,0c0.2,0,22.2-0.6,28.7-7.1c1.2-1.2,2.8-1.3,3.9-0.2c4,4,4,32,0,36.1
		C65.4,66,64.8,66.2,64.1,66.2z M35.1,55.1c5.5,0,21.5,0.6,28.9,8c0.9-1.3,2-6.7,2-15.4c0-8.7-1.1-14.5-2-15.9
		c-7.3,7.1-28.7,7.9-30.6,7.9c-2.3,0.4-4,2.4-4,4.8v6c0,2.3,1.6,4.3,3.9,4.8C33.7,55.1,34.3,55.1,35.1,55.1z M63.1,30.5L63.1,30.5
		L63.1,30.5z"/>
	<path d="M42.9,74.1c-2.7,0-5.1-1.9-5.6-4.6L35,56.8c0-0.1,0-0.2,0-0.3V38.3c0-0.8,0.7-1.5,1.5-1.5s1.5,0.7,1.5,1.5v18.1l2.3,12.5
		c0.3,1.4,1.7,2.4,3.2,2.1c1.5-0.3,2.4-1.7,2.1-3.2l-2.1-10c-0.2-0.8,0.4-1.6,1.2-1.8c0.8-0.2,1.6,0.4,1.8,1.2l2.1,10
		c0.6,3.1-1.4,6.1-4.5,6.7C43.7,74,43.3,74.1,42.9,74.1z"/>
	<path d="M68,54.5c-0.8,0-1.5-0.7-1.5-1.5s0.7-1.5,1.5-1.5c1.9,0,3.4-1.5,3.4-3.4s-1.5-3.4-3.4-3.4c-0.8,0-1.5-0.7-1.5-1.5
		s0.7-1.5,1.5-1.5c3.5,0,6.4,2.9,6.4,6.4S71.5,54.5,68,54.5z"/>
</g>
</svg>
