<?xml version="1.0" encoding="utf-8"?>
<!-- Generator: Adobe Illustrator 22.1.0, SVG Export Plug-In . SVG Version: 6.00 Build 0)  -->
<svg version="1.1" id="Layer_1" xmlns="http://www.w3.org/2000/svg" xmlns:xlink="http://www.w3.org/1999/xlink" x="0px" y="0px"
	 viewBox="0 0 100 125" style="enable-background:new 0 0 100 125;" xml:space="preserve">
<title>bell</title>
<g>
	<path d="M65.4,67.5H35.6c-0.5,0-0.9-0.2-1.2-0.6c-0.3-0.4-0.4-0.9-0.2-1.3l2.2-7.6v-9.2c0-7.8,6.4-14.2,14.2-14.2
		c7.9,0,14.2,6.4,14.2,14.2V58l2.2,7.5c0.1,0.5,0,0.9-0.2,1.3S65.9,67.5,65.4,67.5z M37.6,64.5h25.9l-1.7-5.8c0-0.1-0.1-0.3-0.1-0.4
		v-9.4c0-3-1.2-5.8-3.3-7.9c-2.1-2.1-4.9-3.3-7.9-3.3c-6.2,0-11.2,5-11.2,11.2v9.4c0,0.1,0,0.3-0.1,0.4L37.6,64.5z M37.8,58.2
		L37.8,58.2L37.8,58.2z"/>
	<path d="M50.5,37.6c-2.7,0-4.8-2.2-4.8-4.8s2.2-4.8,4.8-4.8c2.7,0,4.8,2.2,4.8,4.8S53.2,37.6,50.5,37.6z M50.5,31
		c-1,0-1.8,0.8-1.8,1.8c0,1,0.8,1.8,1.8,1.8c1,0,1.8-0.8,1.8-1.8C52.3,31.8,51.5,31,50.5,31z"/>
	<path d="M50.5,73c-2.7,0-4.8-2.2-4.8-4.8V66c0-0.8,0.7-1.5,1.5-1.5s1.5,0.7,1.5,1.5v2.2c0,1,0.8,1.8,1.8,1.8c1,0,1.8-0.8,1.8-1.8
		V66c0-0.8,0.7-1.5,1.5-1.5s1.5,0.7,1.5,1.5v2.2C55.3,70.9,53.2,73,50.5,73z"/>
	<path d="M57.7,57.1c-0.8,0-1.5-0.7-1.5-1.5v-8.2c0-0.8,0.7-1.5,1.5-1.5s1.5,0.7,1.5,1.5v8.2C59.2,56.5,58.5,57.1,57.7,57.1z"/>
</g>
</svg>
