<?xml version="1.0" encoding="utf-8"?>
<!-- Generator: Adobe Illustrator 22.1.0, SVG Export Plug-In . SVG Version: 6.00 Build 0)  -->
<svg version="1.1" id="Layer_1" xmlns="http://www.w3.org/2000/svg" xmlns:xlink="http://www.w3.org/1999/xlink" x="0px" y="0px"
	 viewBox="0 0 100 125" style="enable-background:new 0 0 100 125;" xml:space="preserve">
<title>book</title>
<g>
	<path d="M49.4,69c-0.1,0-0.3,0-0.4,0c-3.6-0.9-7.2-1.4-10.9-1.3c-3.7-0.1-7.4,0.4-11,1.3c-0.4,0.1-0.9,0-1.3-0.3
		c-0.4-0.3-0.6-0.7-0.6-1.2V34.4c0-0.7,0.5-1.3,1.1-1.5c3.8-1,7.7-1.5,11.7-1.4c3.9,0,7.9,0.4,11.7,1.4c0.7,0.2,1.1,0.8,1.1,1.5
		v33.1c0,0.5-0.2,0.9-0.6,1.2C50,68.9,49.7,69,49.4,69z M28.3,35.5v30c3.2-0.7,6.5-1,9.8-1c3.3,0,6.6,0.3,9.8,1v-30
		c-3.2-0.7-6.5-1.1-9.8-1c0,0,0,0,0,0C34.7,34.5,31.5,34.8,28.3,35.5z"/>
	<path d="M49.4,69c-0.3,0-0.7-0.1-0.9-0.3c-0.4-0.3-0.6-0.7-0.6-1.2V34.4c0-0.7,0.5-1.3,1.1-1.5c3.8-1,7.7-1.5,11.7-1.4
		c3.9,0,7.9,0.4,11.7,1.4c0.7,0.2,1.1,0.8,1.1,1.5v33.1c0,0.5-0.2,0.9-0.6,1.2s-0.8,0.4-1.3,0.3c-3.6-0.9-7.3-1.4-10.9-1.3
		c-3.7-0.1-7.4,0.4-11,1.3C49.6,69,49.5,69,49.4,69z M50.9,35.5v30c3.2-0.7,6.5-1,9.8-1c3.3,0,6.6,0.3,9.8,1v-30
		c-3.2-0.7-6.5-1.1-9.8-1c0,0,0,0,0,0C57.4,34.5,54.1,34.8,50.9,35.5z"/>
</g>
</svg>
