<?xml version="1.0" encoding="utf-8"?>
<!-- Generator: Adobe Illustrator 22.1.0, SVG Export Plug-In . SVG Version: 6.00 Build 0)  -->
<svg version="1.1" id="Layer_1" xmlns="http://www.w3.org/2000/svg" xmlns:xlink="http://www.w3.org/1999/xlink" x="0px" y="0px"
	 viewBox="0 0 100 125" style="enable-background:new 0 0 100 125;" xml:space="preserve">
<title>cog</title>
<g>
	<path d="M43.4,73.8c-0.5,0-1.1-0.1-1.5-0.4l-6.4-3.7c-1.4-0.8-1.9-2.5-1.3-3.9l1.6-3.5c-0.9-1.1-1.6-2.4-2.1-3.7l-3.8-0.4
		c-1.6-0.2-2.8-1.5-2.8-3.1v-7.3c0-1.6,1.2-2.9,2.8-3.1l3.8-0.4c0.6-1.3,1.3-2.6,2.1-3.7l-1.6-3.5c-0.6-1.5-0.1-3.1,1.3-3.9l6.4-3.7
		c1.4-0.8,3.1-0.4,4,0.9l2.2,3.1c1.4-0.2,2.9-0.2,4.3,0l2.3-3.1c0.9-1.3,2.7-1.6,4-0.9l6.3,3.7c1.3,0.8,1.9,2.5,1.3,3.9l-1.6,3.5
		c0.4,0.6,0.8,1.2,1.2,1.8c0,0,0,0,0,0c0.4,0.6,0.7,1.3,0.9,1.9l3.8,0.4c1.6,0.2,2.8,1.5,2.8,3.1v7.4c0,1.6-1.2,2.9-2.8,3.1
		l-3.8,0.4c-0.6,1.3-1.3,2.6-2.1,3.7l1.6,3.5c0.6,1.5,0.1,3.1-1.3,3.9l-6.4,3.7c-1.4,0.8-3.1,0.4-4-0.9l-2.2-3.1
		c-1.4,0.2-2.9,0.2-4.3,0l-2.2,3.1C45.3,73.3,44.4,73.8,43.4,73.8z M43.4,32.1C43.4,32.1,43.4,32.1,43.4,32.1L37,35.8
		c0,0,0,0.1,0,0.1l1.9,4.3c0.2,0.5,0.2,1.1-0.2,1.6c-1.1,1.3-2,2.8-2.6,4.4c-0.2,0.5-0.7,0.9-1.3,1l-4.7,0.5c0,0-0.1,0-0.1,0.1v7.4
		c0,0.1,0,0.1,0.1,0.1l4.7,0.5c0.6,0.1,1.1,0.4,1.3,1c0.6,1.6,1.5,3.1,2.6,4.4c0.4,0.4,0.5,1.1,0.2,1.6L37,67c0,0,0,0.1,0,0.1
		l6.4,3.7c0,0,0.1,0,0.1,0l2.8-3.8c0.3-0.5,0.9-0.7,1.5-0.6c1.7,0.3,3.4,0.3,5.1,0c0.6-0.1,1.1,0.1,1.5,0.6l2.8,3.8c0,0,0.1,0,0.1,0
		l6.4-3.7c0,0,0-0.1,0-0.1l-1.9-4.3c-0.2-0.5-0.2-1.1,0.2-1.6c1.1-1.3,2-2.8,2.6-4.4c0.2-0.5,0.7-0.9,1.3-1l4.7-0.5
		c0,0,0.1,0,0.1-0.1v-7.3c0,0,0-0.1-0.1-0.1l-4.7-0.5c-0.6-0.1-1.1-0.4-1.3-1c-0.3-0.8-0.7-1.6-1.1-2.3c-0.4-0.7-0.9-1.4-1.5-2.1
		c-0.4-0.4-0.5-1.1-0.2-1.6l1.9-4.3c0,0,0-0.1,0-0.1l-6.3-3.7c0,0-0.1,0-0.1,0L54.3,36c-0.3,0.5-0.9,0.7-1.5,0.6
		c-1.7-0.3-3.4-0.3-5.1,0c-0.6,0.1-1.1-0.1-1.5-0.6L43.4,32.1C43.5,32.1,43.4,32.1,43.4,32.1z"/>
	<path d="M50.4,62.2c-5.8,0-10.6-4.7-10.6-10.6s4.7-10.6,10.6-10.6S61,45.8,61,51.7S56.3,62.2,50.4,62.2z M50.4,44.1
		c-4.2,0-7.6,3.4-7.6,7.6s3.4,7.6,7.6,7.6s7.6-3.4,7.6-7.6S54.6,44.1,50.4,44.1z"/>
</g>
</svg>
