<?xml version="1.0" encoding="utf-8"?>
<!-- Generator: Adobe Illustrator 22.1.0, SVG Export Plug-In . SVG Version: 6.00 Build 0)  -->
<svg version="1.1" id="Layer_1" xmlns="http://www.w3.org/2000/svg" xmlns:xlink="http://www.w3.org/1999/xlink" x="0px" y="0px"
	 viewBox="0 0 100 125" style="enable-background:new 0 0 100 125;" xml:space="preserve">
<title>home</title>
<g>
	<path d="M71.7,75.1H28.3c-0.8,0-1.5-0.7-1.5-1.5V44.1c0-0.5,0.2-0.9,0.6-1.2L49,26.2c0.5-0.4,1.3-0.4,1.8,0l21.7,16.7
		c0.4,0.3,0.6,0.7,0.6,1.2v29.5C73.2,74.4,72.5,75.1,71.7,75.1z M29.8,72.1h40.4V44.8L50,29.3L29.8,44.8V72.1z"/>
	<path d="M57.1,65.8H42.8c-0.8,0-1.5-0.7-1.5-1.5V50c0-0.8,0.7-1.5,1.5-1.5h14.3c0.8,0,1.5,0.7,1.5,1.5v14.3
		C58.6,65.1,57.9,65.8,57.1,65.8z M44.3,62.8h11.3V51.5H44.3V62.8z"/>
</g>
</svg>
