<?xml version="1.0" encoding="utf-8"?>
<!-- Generator: Adobe Illustrator 22.1.0, SVG Export Plug-In . SVG Version: 6.00 Build 0)  -->
<svg version="1.1" id="Layer_1" xmlns="http://www.w3.org/2000/svg" xmlns:xlink="http://www.w3.org/1999/xlink" x="0px" y="0px"
	 viewBox="0 0 100 125" style="enable-background:new 0 0 100 125;" xml:space="preserve">
<title>news</title>
<g>
	<path d="M61.3,65.9c-0.8,0-1.5-0.7-1.5-1.5V30.5H28v33.9c0,0.8-0.7,1.5-1.5,1.5S25,65.2,25,64.4V29c0-0.8,0.7-1.5,1.5-1.5h34.8
		c0.8,0,1.5,0.7,1.5,1.5v35.4C62.8,65.2,62.1,65.9,61.3,65.9z"/>
	<path d="M67.9,72.5c-4.5,0-8.1-3.6-8.1-8.1c0-0.8,0.7-1.5,1.5-1.5s1.5,0.7,1.5,1.5c0,2.8,2.3,5.1,5.1,5.1c2.8,0,5.1-2.3,5.1-5.1V61
		H61.3c-0.8,0-1.5-0.7-1.5-1.5s0.7-1.5,1.5-1.5h13.2c0.8,0,1.5,0.7,1.5,1.5v4.9C76,68.9,72.4,72.5,67.9,72.5z"/>
	<path d="M67.9,72.5H33.1c-4.5,0-8.1-3.6-8.1-8.1c0-0.8,0.7-1.5,1.5-1.5s1.5,0.7,1.5,1.5c0,2.8,2.3,5.1,5.1,5.1h34.8
		c0.8,0,1.5,0.7,1.5,1.5S68.7,72.5,67.9,72.5z"/>
	<path d="M54.1,53.3H33.7c-0.8,0-1.5-0.7-1.5-1.5s0.7-1.5,1.5-1.5h20.4c0.8,0,1.5,0.7,1.5,1.5S54.9,53.3,54.1,53.3z"/>
	<path d="M54.1,61.7H33.7c-0.8,0-1.5-0.7-1.5-1.5s0.7-1.5,1.5-1.5h20.4c0.8,0,1.5,0.7,1.5,1.5S54.9,61.7,54.1,61.7z"/>
	<path d="M54.1,44.9H33.7c-0.8,0-1.5-0.7-1.5-1.5v-6c0-0.8,0.7-1.5,1.5-1.5h20.4c0.8,0,1.5,0.7,1.5,1.5v6
		C55.6,44.2,54.9,44.9,54.1,44.9z M35.2,41.9h17.4v-3H35.2V41.9z"/>
</g>
</svg>
