<?xml version="1.0" encoding="utf-8"?>
<!-- Generator: Adobe Illustrator 22.1.0, SVG Export Plug-In . SVG Version: 6.00 Build 0)  -->
<svg version="1.1" id="Layer_1" xmlns="http://www.w3.org/2000/svg" xmlns:xlink="http://www.w3.org/1999/xlink" x="0px" y="0px"
	 viewBox="0 0 100 125" style="enable-background:new 0 0 100 125;" xml:space="preserve">
<title>search</title>
<g>
	<path d="M47,65.2c-4.5,0-9-1.7-12.4-5.1c-6.8-6.8-6.8-17.9,0-24.7l0,0c6.8-6.8,17.9-6.8,24.7,0c6.8,6.8,6.8,17.9,0,24.7
		C56,63.5,51.5,65.2,47,65.2z M36.7,37.5c-5.7,5.7-5.7,14.9,0,20.5c5.7,5.7,14.9,5.7,20.5,0c5.7-5.7,5.7-14.9,0-20.5
		C51.6,31.8,42.4,31.8,36.7,37.5L36.7,37.5z"/>
	<path d="M67.4,69.6c-0.4,0-0.8-0.1-1.1-0.4l-9-9.1c-0.6-0.6-0.6-1.5,0-2.1c0.6-0.6,1.5-0.6,2.1,0l9,9.1c0.6,0.6,0.6,1.5,0,2.1
		C68.1,69.5,67.8,69.6,67.4,69.6z"/>
</g>
</svg>
