<?xml version="1.0" encoding="utf-8"?>
<!-- Generator: Adobe Illustrator 22.1.0, SVG Export Plug-In . SVG Version: 6.00 Build 0)  -->
<svg version="1.1" id="Layer_1" xmlns="http://www.w3.org/2000/svg" xmlns:xlink="http://www.w3.org/1999/xlink" x="0px" y="0px"
	 viewBox="0 0 100 125" style="enable-background:new 0 0 100 125;" xml:space="preserve">
<title>star</title>
<g>
	<path d="M38.8,72.1c-0.3,0-0.6,0-0.9-0.1c-2.4-0.5-4-2.8-3.6-5.3l1.6-9.3c0.1-0.5-0.1-1-0.4-1.3l-6.8-6.6c-0.7-0.7-1.2-1.7-1.4-2.7
		c-0.1-1.2,0.2-2.4,0.9-3.3c0.7-0.9,1.8-1.6,3-1.7l9.3-1.4c0.5-0.1,0.9-0.4,1.1-0.8l4.2-8.5c0.4-0.9,1.2-1.7,2.2-2.2
		c1.1-0.5,2.3-0.6,3.4-0.1c1.1,0.4,2,1.2,2.5,2.3l4.2,8.5c0.2,0.5,0.6,0.8,1.1,0.8l9.4,1.4c1,0.1,2,0.6,2.7,1.4
		c0.8,0.9,1.2,2,1.2,3.2c0,1.2-0.5,2.3-1.4,3.1l-6.8,6.6c-0.4,0.4-0.5,0.9-0.4,1.3l1.6,9.3c0.2,1,0,2.1-0.5,3c-1.2,2.2-4,3-6.1,1.8
		l-8.3-4.4c-0.4-0.2-1-0.2-1.4,0l-8.4,4.4C40.3,71.9,39.5,72.1,38.8,72.1z M50,31.5c-0.2,0-0.4,0-0.6,0.1c-0.3,0.1-0.6,0.4-0.7,0.7
		l-4.2,8.5c-0.7,1.3-1.9,2.3-3.4,2.5l-9.4,1.4c-0.4,0.1-0.8,0.3-1,0.6c-0.2,0.3-0.4,0.7-0.3,1.1c0,0.3,0.2,0.7,0.5,0.9l6.8,6.7
		c1.1,1,1.6,2.5,1.3,4l-1.6,9.3c-0.2,0.8,0.4,1.6,1.2,1.8c0.3,0.1,0.7,0,1-0.2l8.4-4.4c1.3-0.7,2.9-0.7,4.2,0l8.4,4.4
		c0.8,0.4,1.7,0.2,2.1-0.6c0.2-0.3,0.2-0.7,0.2-1l-1.6-9.4c-0.3-1.5,0.2-3,1.3-4l6.8-6.6c0,0,0,0,0,0c0.6-0.6,0.6-1.5,0.1-2.1
		c-0.2-0.3-0.6-0.4-0.9-0.5L59,43.3c-1.5-0.2-2.8-1.1-3.4-2.5l-4.2-8.5c-0.2-0.4-0.5-0.7-0.9-0.8C50.3,31.5,50.2,31.5,50,31.5z"/>
</g>
</svg>
