<?xml version="1.0" encoding="utf-8"?>
<!-- Generator: Adobe Illustrator 22.1.0, SVG Export Plug-In . SVG Version: 6.00 Build 0)  -->
<svg version="1.1" id="Layer_1" xmlns="http://www.w3.org/2000/svg" xmlns:xlink="http://www.w3.org/1999/xlink" x="0px" y="0px"
	 viewBox="0 0 100 125" style="enable-background:new 0 0 100 125;" xml:space="preserve">
<title>stopwatch</title>
<g>
	<path d="M50,71c-10.1,0-18.4-8.3-18.4-18.4S39.9,34.2,50,34.2c10.1,0,18.4,8.3,18.4,18.4S60.1,71,50,71z M50,37.2
		c-8.5,0-15.4,6.9-15.4,15.4S41.5,68,50,68c8.5,0,15.4-6.9,15.4-15.4S58.5,37.2,50,37.2z"/>
	<path d="M50,54.4c-0.4,0-0.7-0.1-1-0.4l-7.9-7c-0.6-0.5-0.7-1.5-0.1-2.1s1.5-0.7,2.1-0.1l7.9,7c0.6,0.5,0.7,1.5,0.1,2.1
		C50.8,54.2,50.4,54.4,50,54.4z"/>
	<path d="M54.5,32.5h-9c-0.8,0-1.5-0.7-1.5-1.5s0.7-1.5,1.5-1.5h9c0.8,0,1.5,0.7,1.5,1.5S55.3,32.5,54.5,32.5z"/>
	<path d="M50,37.2c-0.8,0-1.5-0.7-1.5-1.5V31c0-0.8,0.7-1.5,1.5-1.5s1.5,0.7,1.5,1.5v4.7C51.5,36.5,50.8,37.2,50,37.2z"/>
	<path d="M66.1,41c-0.4,0-0.8-0.2-1.1-0.5l-2.5-2.6c-0.6-0.6-0.5-1.6,0.1-2.1c0.6-0.6,1.6-0.5,2.1,0.1l2.5,2.6
		c0.6,0.6,0.5,1.6-0.1,2.1C66.8,40.8,66.5,41,66.1,41z"/>
	<path d="M33.5,40.9c-0.4,0-0.8-0.2-1.1-0.5c-0.6-0.6-0.5-1.6,0.1-2.1l2.6-2.5c0.6-0.6,1.6-0.5,2.1,0.1c0.6,0.6,0.5,1.6-0.1,2.1
		l-2.6,2.5C34.3,40.7,33.9,40.9,33.5,40.9z"/>
</g>
</svg>
