<?xml version="1.0" encoding="utf-8"?>
<!-- Generator: Adobe Illustrator 22.1.0, SVG Export Plug-In . SVG Version: 6.00 Build 0)  -->
<svg version="1.1" id="Layer_1" xmlns="http://www.w3.org/2000/svg" xmlns:xlink="http://www.w3.org/1999/xlink" x="0px" y="0px"
	 viewBox="0 0 100 125" style="enable-background:new 0 0 100 125;" xml:space="preserve">
<title>edit</title>
<g>
	<path d="M67.8,67.8H48.5c-0.8,0-1.5-0.7-1.5-1.5s0.7-1.5,1.5-1.5h19.3c0.8,0,1.5,0.7,1.5,1.5S68.6,67.8,67.8,67.8z"/>
	<path d="M33.3,67.8c-0.4,0-0.8-0.2-1.1-0.4c-0.3-0.3-0.5-0.8-0.4-1.3l0.9-7.3c0-0.3,0.2-0.6,0.4-0.9l24.2-24.3c0,0,0.1-0.1,0.1-0.1
		c0.9-0.8,2.1-1.3,3.2-1.3c1.2,0,2.3,0.5,3.2,1.4l2,2c0,0,0.1,0.1,0.1,0.1c0.8,0.9,1.3,2,1.3,3.2c0,1.2-0.5,2.3-1.4,3.2L41.6,66.4
		c-0.2,0.2-0.5,0.4-0.9,0.4l-7.3,1C33.4,67.8,33.3,67.8,33.3,67.8z M35.6,59.7L35,64.5l4.9-0.7L63.7,40c0.3-0.3,0.5-0.7,0.5-1.1
		c0-0.4-0.1-0.8-0.4-1.1l-2.1-2.1c-0.3-0.3-0.7-0.5-1.1-0.5c-0.4,0-0.8,0.1-1.1,0.4L35.6,59.7z"/>
	<path d="M58,41.5c-0.4,0-0.8-0.1-1.1-0.4l-2-2c-0.6-0.6-0.6-1.5,0-2.1c0.6-0.6,1.5-0.6,2.1,0l2,2c0.6,0.6,0.6,1.5,0,2.1
		C58.8,41.4,58.4,41.5,58,41.5z"/>
</g>
</svg>
