<?xml version="1.0" encoding="utf-8"?>
<!-- Generator: Adobe Illustrator 22.1.0, SVG Export Plug-In . SVG Version: 6.00 Build 0)  -->
<svg version="1.1" id="Layer_1" xmlns="http://www.w3.org/2000/svg" xmlns:xlink="http://www.w3.org/1999/xlink" x="0px" y="0px"
	 viewBox="0 0 100 125" style="enable-background:new 0 0 100 125;" xml:space="preserve">
<title>text-align-justify</title>
<g>
	<path d="M69.8,38h-39c-0.8,0-1.5-0.7-1.5-1.5s0.7-1.5,1.5-1.5h39c0.8,0,1.5,0.7,1.5,1.5S70.6,38,69.8,38z"/>
	<path d="M69.8,47.3h-39c-0.8,0-1.5-0.7-1.5-1.5s0.7-1.5,1.5-1.5h39c0.8,0,1.5,0.7,1.5,1.5S70.6,47.3,69.8,47.3z"/>
	<path d="M69.8,56.7h-39c-0.8,0-1.5-0.7-1.5-1.5s0.7-1.5,1.5-1.5h39c0.8,0,1.5,0.7,1.5,1.5S70.6,56.7,69.8,56.7z"/>
	<path d="M69.8,66h-39c-0.8,0-1.5-0.7-1.5-1.5s0.7-1.5,1.5-1.5h39c0.8,0,1.5,0.7,1.5,1.5S70.6,66,69.8,66z"/>
</g>
</svg>
